<svg width="20" height="23" viewBox="0 0 20 23" fill="none" xmlns="http://www.w3.org/2000/svg">
<path d="M13.5714 6.21429H14.0714V5.71429V5C14.0714 3.92019 13.6425 2.88461 12.8789 2.12107C12.1154 1.35752 11.0798 0.928571 10 0.928571C8.92019 0.928571 7.88461 1.35752 7.12107 2.12106C6.35752 2.88461 5.92857 3.92019 5.92857 5V5.71429V6.21429H6.42857H13.5714ZM14.5 5.71429V6.21429H15H19.5V20C19.5 20.6252 19.2517 21.2247 18.8096 21.6667C18.3676 22.1088 17.768 22.3571 17.1429 22.3571H2.85714C2.23199 22.3571 1.63244 22.1088 1.19039 21.6667C0.748341 21.2247 0.5 20.6252 0.5 20V6.21429H5H5.5V5.71429V5C5.5 3.80653 5.97411 2.66193 6.81802 1.81802C7.66193 0.974106 8.80653 0.5 10 0.5C11.1935 0.5 12.3381 0.974106 13.182 1.81802C14.0259 2.66193 14.5 3.80653 14.5 5V5.71429ZM1.42857 6.64286H0.928571V7.14286V20C0.928571 20.5115 1.13176 21.002 1.49344 21.3637C1.85511 21.7254 2.34565 21.9286 2.85714 21.9286H17.1429C17.6543 21.9286 18.1449 21.7254 18.5066 21.3637C18.8682 21.002 19.0714 20.5115 19.0714 20V7.14286V6.64286H18.5714H1.42857Z" fill="black" stroke="white"/>
</svg>
